<?xml version="1.0" encoding="iso-8859-1"?>
<!-- Generator: Adobe Illustrator 19.0.0, SVG Export Plug-In . SVG Version: 6.00 Build 0)  -->
<svg xmlns="http://www.w3.org/2000/svg" xmlns:xlink="http://www.w3.org/1999/xlink" version="1.1" id="Layer_1" x="0px" y="0px" viewBox="0 0 512 512" style="enable-background:new 0 0 512 512;" xml:space="preserve">
<path style="fill:#48449E;" d="M123.647,349.424v16.34c0,14.979,14.706,27.234,32.681,27.234h199.344  c17.974,0,32.681-12.255,32.681-27.234v-16.34H123.647z"/>
<path style="fill:#FFD83D;" d="M350.882,193.282c-4.302-11.184-17.626-20.335-29.609-20.335H190.727  c-11.983,0-25.307,9.151-29.609,20.335l-24.859,64.635L256,279.704l119.742-21.787L350.882,193.282z"/>
<path style="fill:#48449E;" d="M371.929,254.302H132.446c-49.972,11.362-93.868,29.611-128.088,52.72l245.651,64.19l250.008-64.19  C465.797,283.913,421.901,265.664,371.929,254.302z"/>
<path style="fill:#495DD9;" d="M4.357,307.369c31.312,21.145,70.722,38.222,115.477,49.679H384.54  c44.754-11.457,84.165-28.536,115.477-49.679H4.357z"/>
<path d="M69.298,306.552c0,4.513,3.658,8.17,8.17,8.17h357.063c4.512,0,8.17-3.657,8.17-8.17s-3.658-8.17-8.17-8.17H77.468  C72.956,298.382,69.298,302.04,69.298,306.552z"/>
<path d="M508.402,299.781c-34.287-23.153-77.985-41.388-126.581-52.9l-23.313-60.616c-5.515-14.339-21.87-25.573-37.234-25.573  H264.17v-37.605c0-4.512-3.658-8.17-8.17-8.17s-8.17,3.658-8.17,8.17v37.605h-57.103c-15.364,0-31.719,11.234-37.234,25.573  l-23.313,60.615c-48.595,11.512-92.295,29.748-126.581,52.902C1.349,301.3,0,303.837,0,306.552s1.349,5.252,3.598,6.771  c30.694,20.727,69.28,37.667,111.904,49.197c0.519,19.134,18.626,34.563,40.826,34.563h199.344c22.2,0,40.307-15.43,40.826-34.563  c42.623-11.529,81.21-28.469,111.904-49.197c2.25-1.52,3.598-4.057,3.598-6.771S510.651,301.3,508.402,299.781z M168.743,192.13  c3.094-8.043,13.366-15.097,21.983-15.097h130.547c8.617,0,18.89,7.056,21.983,15.097l20.589,53.532H148.154L168.743,192.13z   M387.319,348.062H189.009c-4.512,0-8.17,3.657-8.17,8.17c0,4.513,3.658,8.17,8.17,8.17h190.908  c-1.758,9.099-12.145,16.34-24.245,16.34H156.328c-12.1,0-22.487-7.241-24.245-16.34h24.245c4.512,0,8.17-3.657,8.17-8.17  c0-4.513-3.658-8.17-8.17-8.17h-31.647c-38.047-9.83-72.802-24.08-101.386-41.51c31.722-19.356,70.797-34.662,113.885-44.549h237.64  c43.089,9.886,82.163,25.194,113.885,44.549C460.121,323.98,425.366,338.23,387.319,348.062z"/>
<g>
</g>
<g>
</g>
<g>
</g>
<g>
</g>
<g>
</g>
<g>
</g>
<g>
</g>
<g>
</g>
<g>
</g>
<g>
</g>
<g>
</g>
<g>
</g>
<g>
</g>
<g>
</g>
<g>
</g>
</svg>
